<svg width="496" height="481" viewBox="0 0 496 481" fill="none" xmlns="http://www.w3.org/2000/svg">
<path d="M301.017 479.853C243.807 475.238 217.058 395.134 210.835 355.659C185.447 349.986 184.994 412.057 171.283 430.836C157.571 449.615 99.8761 531.395 43.8715 416.429C-12.1331 301.463 127.123 308.745 129.94 285.208C132.757 261.671 -6.96104 260.748 1.88017 197.312C10.7214 133.876 105.671 172.76 130.254 197.58C154.836 222.4 157.509 225.93 136.11 125.945C114.712 25.9592 142.607 8.77131 192.072 2.02327C241.537 -4.72477 259.11 15.3303 274.394 57.3229C289.678 99.3154 252.291 233.078 275.751 193.023C299.21 152.969 452.748 51.4998 489.246 182.289C525.743 313.079 389.725 266.63 330.676 286.715C271.627 306.8 375.208 304.556 387.713 368.664C400.218 432.773 372.53 485.622 301.017 479.853Z" fill="#6482E4" stroke="#6482E4"/>
</svg>
